# xmcd
#
# Track frame offsets: 
#        150
#        8860
#        24092
#        47689
#        65087
#        88275
#        106150
#        124822
#        145612
#        165067
#        183170
#        198437
#        211860
#        230685
#        243920
#        263945
#        283470
#        298187
#        311762
#        323762
#
# Disc length: 4544 seconds
#
# Revision: 1
# Processed by: cddbd v1.5.2PL0 Copyright (c) Steve Scherf et al.
# Submitted via: ExactAudioCopy v0.99pb5
#
DISCID=1f11be14
DTITLE=Skip James - Blues from the Delta
DYEAR=1900
DGENRE=Blues
TTITLE0=I'm So Glad
TTITLE1=Little Cow, Little Calf Blues
TTITLE2=Devil Got My Woman
TTITLE3=22-20 Blues
TTITLE4=Special Rider Blues
TTITLE5=Mistreating Child Abuse
TTITLE6=Sick Bed Blues
TTITLE7=Catfish Blues
TTITLE8=Lorenzo Blues
TTITLE9=Careless Love
TTITLE10=Hard Time Killing Floor Blues
TTITLE11=Crow Jane
TTITLE12=Center Blues
TTITLE13=How Long Blues
TTITLE14=Cherry Ball Blues
TTITLE15=Cypress Grove
TTITLE16=Look Down the Road
TTITLE17=She's All the World to Me
TTITLE18=Everybody Leaving Here
TTITLE19=Good Road Camp Blues
EXTD=
EXTT0=
EXTT1=
EXTT2=
EXTT3=
EXTT4=
EXTT5=
EXTT6=
EXTT7=
EXTT8=
EXTT9=
EXTT10=
EXTT11=
EXTT12=
EXTT13=
EXTT14=
EXTT15=
EXTT16=
EXTT17=
EXTT18=
EXTT19=
PLAYORDER=
